<svg xmlns="http://www.w3.org/2000/svg" width="375" viewBox="0 0 375 375" height="375" version="1.0"><defs><clipPath id="a"><path d="M 0 14.316406 L 347 14.316406 L 347 360.816406 L 0 360.816406 Z M 0 14.316406"/></clipPath></defs><path fill="#161616" d="M 314.945312 287.617188 C 314.945312 287.617188 326.738281 315.519531 346.769531 314.6875 C 366.800781 313.78125 374.589844 306.597656 374.589844 306.597656 L 368.464844 353.027344 C 368.464844 353.027344 308.824219 354.691406 304.742188 300.699219 C 303.984375 290.414062 314.945312 287.617188 314.945312 287.617188 Z M 314.945312 287.617188"/><path fill="#161616" d="M 292.570312 187.566406 C 292.570312 189.515625 292.523438 191.464844 292.429688 193.410156 C 292.332031 195.355469 292.191406 197.296875 292 199.234375 C 291.808594 201.171875 291.570312 203.105469 291.285156 205.035156 C 291 206.960938 290.664062 208.878906 290.285156 210.789062 C 289.90625 212.699219 289.480469 214.601562 289.007812 216.488281 C 288.53125 218.378906 288.015625 220.257812 287.449219 222.121094 C 286.882812 223.984375 286.273438 225.832031 285.617188 227.667969 C 284.960938 229.503906 284.261719 231.320312 283.515625 233.117188 C 282.769531 234.917969 281.980469 236.699219 281.148438 238.460938 C 280.316406 240.21875 279.441406 241.960938 278.523438 243.679688 C 277.605469 245.394531 276.644531 247.089844 275.644531 248.761719 C 274.644531 250.433594 273.601562 252.078125 272.519531 253.695312 C 271.4375 255.316406 270.316406 256.910156 269.15625 258.472656 C 267.996094 260.039062 266.800781 261.574219 265.566406 263.078125 C 264.328125 264.585938 263.058594 266.058594 261.75 267.503906 C 260.441406 268.945312 259.101562 270.355469 257.722656 271.734375 C 256.347656 273.113281 254.9375 274.453125 253.492188 275.761719 C 252.050781 277.070312 250.578125 278.34375 249.070312 279.578125 C 247.566406 280.816406 246.03125 282.011719 244.46875 283.171875 C 242.902344 284.332031 241.3125 285.453125 239.691406 286.539062 C 238.074219 287.621094 236.429688 288.660156 234.757812 289.664062 C 233.089844 290.664062 231.394531 291.625 229.679688 292.542969 C 227.960938 293.460938 226.222656 294.335938 224.460938 295.167969 C 222.703125 296.003906 220.921875 296.792969 219.125 297.535156 C 217.324219 298.28125 215.507812 298.984375 213.675781 299.640625 C 211.839844 300.296875 209.992188 300.90625 208.128906 301.472656 C 206.265625 302.039062 204.390625 302.558594 202.5 303.03125 C 200.613281 303.503906 198.714844 303.929688 196.804688 304.308594 C 194.894531 304.691406 192.976562 305.023438 191.050781 305.308594 C 189.125 305.59375 187.191406 305.832031 185.253906 306.023438 C 183.316406 306.214844 181.375 306.359375 179.429688 306.453125 C 177.484375 306.550781 175.539062 306.597656 173.589844 306.597656 C 171.644531 306.597656 169.699219 306.550781 167.753906 306.453125 C 165.808594 306.359375 163.867188 306.214844 161.929688 306.023438 C 159.992188 305.832031 158.058594 305.59375 156.132812 305.308594 C 154.207031 305.023438 152.289062 304.691406 150.378906 304.308594 C 148.46875 303.929688 146.570312 303.503906 144.679688 303.03125 C 142.792969 302.558594 140.917969 302.039062 139.054688 301.472656 C 137.191406 300.90625 135.339844 300.296875 133.507812 299.640625 C 131.675781 298.984375 129.859375 298.28125 128.058594 297.535156 C 126.261719 296.792969 124.480469 296.003906 122.71875 295.167969 C 120.960938 294.335938 119.222656 293.460938 117.503906 292.542969 C 115.785156 291.625 114.09375 290.664062 112.421875 289.664062 C 110.753906 288.660156 109.109375 287.621094 107.488281 286.539062 C 105.871094 285.453125 104.277344 284.332031 102.714844 283.171875 C 101.152344 282.011719 99.617188 280.816406 98.109375 279.578125 C 96.605469 278.34375 95.132812 277.070312 93.6875 275.761719 C 92.246094 274.453125 90.835938 273.113281 89.460938 271.734375 C 88.082031 270.355469 86.738281 268.945312 85.433594 267.503906 C 84.125 266.058594 82.851562 264.585938 81.617188 263.078125 C 80.382812 261.574219 79.183594 260.039062 78.023438 258.472656 C 76.863281 256.910156 75.746094 255.316406 74.664062 253.695312 C 73.582031 252.078125 72.539062 250.433594 71.539062 248.761719 C 70.535156 247.089844 69.578125 245.394531 68.660156 243.679688 C 67.742188 241.960938 66.867188 240.21875 66.035156 238.460938 C 65.203125 236.699219 64.414062 234.917969 63.667969 233.117188 C 62.921875 231.320312 62.222656 229.503906 61.566406 227.667969 C 60.910156 225.832031 60.300781 223.984375 59.734375 222.121094 C 59.167969 220.257812 58.648438 218.378906 58.175781 216.488281 C 57.703125 214.601562 57.277344 212.699219 56.898438 210.789062 C 56.515625 208.878906 56.183594 206.960938 55.898438 205.035156 C 55.613281 203.105469 55.375 201.171875 55.183594 199.234375 C 54.992188 197.296875 54.847656 195.355469 54.753906 193.410156 C 54.660156 191.464844 54.609375 189.515625 54.609375 187.566406 C 54.609375 185.621094 54.660156 183.671875 54.753906 181.726562 C 54.847656 179.78125 54.992188 177.839844 55.183594 175.902344 C 55.375 173.960938 55.613281 172.03125 55.898438 170.101562 C 56.183594 168.175781 56.515625 166.257812 56.898438 164.347656 C 57.277344 162.4375 57.703125 160.535156 58.175781 158.644531 C 58.648438 156.757812 59.167969 154.878906 59.734375 153.015625 C 60.300781 151.152344 60.910156 149.300781 61.566406 147.46875 C 62.222656 145.632812 62.921875 143.816406 63.667969 142.019531 C 64.414062 140.21875 65.203125 138.4375 66.035156 136.675781 C 66.867188 134.914062 67.742188 133.175781 68.660156 131.457031 C 69.578125 129.742188 70.535156 128.046875 71.539062 126.375 C 72.539062 124.703125 73.582031 123.058594 74.664062 121.4375 C 75.746094 119.820312 76.863281 118.226562 78.023438 116.664062 C 79.183594 115.097656 80.382812 113.5625 81.617188 112.058594 C 82.851562 110.550781 84.125 109.078125 85.433594 107.632812 C 86.738281 106.191406 88.082031 104.78125 89.460938 103.402344 C 90.835938 102.023438 92.246094 100.683594 93.6875 99.375 C 95.132812 98.066406 96.605469 96.792969 98.109375 95.558594 C 99.617188 94.320312 101.152344 93.125 102.714844 91.964844 C 104.277344 90.804688 105.871094 89.679688 107.488281 88.597656 C 109.109375 87.515625 110.753906 86.476562 112.421875 85.472656 C 114.09375 84.472656 115.785156 83.511719 117.503906 82.59375 C 119.222656 81.675781 120.960938 80.800781 122.71875 79.96875 C 124.480469 79.132812 126.261719 78.34375 128.058594 77.601562 C 129.859375 76.855469 131.675781 76.152344 133.507812 75.496094 C 135.339844 74.839844 137.191406 74.230469 139.054688 73.664062 C 140.917969 73.097656 142.792969 72.578125 144.679688 72.105469 C 146.570312 71.632812 148.46875 71.207031 150.378906 70.828125 C 152.289062 70.445312 154.207031 70.113281 156.132812 69.828125 C 158.058594 69.542969 159.992188 69.304688 161.929688 69.113281 C 163.867188 68.921875 165.808594 68.777344 167.753906 68.683594 C 169.699219 68.585938 171.644531 68.539062 173.589844 68.539062 C 175.539062 68.539062 177.484375 68.585938 179.429688 68.683594 C 181.375 68.777344 183.316406 68.921875 185.253906 69.113281 C 187.191406 69.304688 189.125 69.542969 191.050781 69.828125 C 192.976562 70.113281 194.894531 70.445312 196.804688 70.828125 C 198.714844 71.207031 200.613281 71.632812 202.5 72.105469 C 204.390625 72.578125 206.265625 73.097656 208.128906 73.664062 C 209.992188 74.230469 211.839844 74.839844 213.675781 75.496094 C 215.507812 76.152344 217.324219 76.855469 219.125 77.601562 C 220.921875 78.34375 222.703125 79.132812 224.460938 79.96875 C 226.222656 80.800781 227.960938 81.675781 229.679688 82.59375 C 231.394531 83.511719 233.089844 84.472656 234.757812 85.472656 C 236.429688 86.476562 238.074219 87.515625 239.691406 88.597656 C 241.3125 89.679688 242.902344 90.804688 244.46875 91.964844 C 246.03125 93.125 247.566406 94.320312 249.070312 95.558594 C 250.578125 96.792969 252.050781 98.066406 253.492188 99.375 C 254.9375 100.683594 256.347656 102.023438 257.722656 103.402344 C 259.101562 104.78125 260.441406 106.191406 261.75 107.632812 C 263.058594 109.078125 264.328125 110.550781 265.566406 112.058594 C 266.800781 113.5625 267.996094 115.097656 269.15625 116.664062 C 270.316406 118.226562 271.4375 119.820312 272.519531 121.4375 C 273.601562 123.058594 274.644531 124.703125 275.644531 126.375 C 276.644531 128.046875 277.605469 129.742188 278.523438 131.457031 C 279.441406 133.175781 280.316406 134.914062 281.148438 136.675781 C 281.980469 138.4375 282.769531 140.21875 283.515625 142.019531 C 284.261719 143.816406 284.960938 145.632812 285.617188 147.46875 C 286.273438 149.300781 286.882812 151.152344 287.449219 153.015625 C 288.015625 154.878906 288.53125 156.757812 289.007812 158.644531 C 289.480469 160.535156 289.90625 162.4375 290.285156 164.347656 C 290.664062 166.257812 291 168.175781 291.285156 170.101562 C 291.570312 172.03125 291.808594 173.960938 292 175.902344 C 292.191406 177.839844 292.332031 179.78125 292.429688 181.726562 C 292.523438 183.671875 292.570312 185.621094 292.570312 187.566406 Z M 292.570312 187.566406"/><g clip-path="url(#a)"><path fill="#CCCCCE" d="M 173.589844 14.316406 C 77.96875 14.316406 0.410156 91.90625 0.410156 187.566406 C 0.410156 283.230469 77.96875 360.816406 173.589844 360.816406 C 269.214844 360.816406 346.769531 283.230469 346.769531 187.566406 C 346.769531 91.90625 269.214844 14.316406 173.589844 14.316406 Z M 173.589844 45.097656 C 199.820312 45.097656 220.988281 66.347656 220.988281 92.511719 C 220.988281 118.675781 199.746094 139.925781 173.589844 139.925781 C 147.4375 139.925781 126.195312 118.675781 126.195312 92.511719 C 126.195312 66.347656 147.359375 45.097656 173.589844 45.097656 Z M 204.507812 182.046875 C 204.507812 185.300781 201.9375 187.871094 198.6875 187.871094 C 195.4375 187.871094 192.867188 185.300781 192.867188 182.046875 C 192.867188 178.796875 195.4375 176.226562 198.6875 176.226562 C 201.9375 176.226562 204.507812 178.796875 204.507812 182.046875 Z M 179.410156 156.867188 C 179.410156 160.117188 176.839844 162.6875 173.589844 162.6875 C 170.339844 162.6875 167.769531 160.117188 167.769531 156.867188 C 167.769531 153.613281 170.339844 151.042969 173.589844 151.042969 C 176.765625 151.042969 179.410156 153.691406 179.410156 156.867188 Z M 154.238281 182.046875 C 154.238281 185.300781 151.667969 187.871094 148.417969 187.871094 C 145.167969 187.871094 142.597656 185.300781 142.597656 182.046875 C 142.597656 178.796875 145.167969 176.226562 148.417969 176.226562 C 151.667969 176.226562 154.238281 178.796875 154.238281 182.046875 Z M 36.167969 160.875 C 36.167969 134.707031 57.40625 113.457031 83.5625 113.457031 C 109.714844 113.457031 130.957031 134.707031 130.957031 160.875 C 130.957031 187.039062 109.714844 208.289062 83.5625 208.289062 C 57.40625 208.289062 36.167969 187.113281 36.167969 160.875 Z M 116.59375 311.210938 C 90.441406 311.210938 69.199219 289.960938 69.199219 263.796875 C 69.199219 237.628906 90.441406 216.378906 116.59375 216.378906 C 142.824219 216.378906 163.992188 237.628906 163.992188 263.796875 C 163.992188 289.960938 142.75 311.210938 116.59375 311.210938 Z M 160.363281 182.046875 C 160.363281 174.710938 166.257812 168.8125 173.589844 168.8125 C 180.921875 168.8125 186.820312 174.710938 186.820312 182.046875 C 186.820312 189.382812 180.921875 195.28125 173.589844 195.28125 C 166.257812 195.28125 160.363281 189.308594 160.363281 182.046875 Z M 173.589844 212.976562 C 170.339844 212.976562 167.769531 210.40625 167.769531 207.152344 C 167.769531 203.902344 170.339844 201.332031 173.589844 201.332031 C 176.839844 201.332031 179.410156 203.902344 179.410156 207.152344 C 179.410156 210.40625 176.765625 212.976562 173.589844 212.976562 Z M 229.679688 311.210938 C 203.523438 311.210938 182.285156 289.960938 182.285156 263.796875 C 182.285156 237.628906 203.523438 216.378906 229.679688 216.378906 C 255.910156 216.378906 277.074219 237.628906 277.074219 263.796875 C 277.152344 289.960938 255.910156 311.210938 229.679688 311.210938 Z M 263.542969 208.363281 C 237.390625 208.363281 216.148438 187.113281 216.148438 160.949219 C 216.148438 134.785156 237.390625 113.457031 263.542969 113.457031 C 289.773438 113.457031 310.941406 134.707031 310.941406 160.875 C 310.941406 187.039062 289.773438 208.363281 263.542969 208.363281 Z M 263.542969 208.363281"/></g><path fill="#B4B4B5" d="M 174.726562 347.054688 C 86.8125 347.054688 15.226562 275.515625 15.226562 187.492188 C 15.226562 99.542969 86.738281 27.929688 174.726562 27.929688 C 262.636719 27.929688 334.222656 99.46875 334.222656 187.492188 C 334.148438 275.515625 262.636719 347.054688 174.726562 347.054688 Z M 174.726562 35.566406 C 90.96875 35.566406 22.785156 103.777344 22.785156 187.566406 C 22.785156 271.355469 90.96875 339.570312 174.726562 339.570312 C 258.480469 339.570312 326.664062 271.355469 326.664062 187.566406 C 326.589844 103.777344 258.480469 35.566406 174.726562 35.566406 Z M 174.726562 35.566406"/></svg>