<svg xmlns="http://www.w3.org/2000/svg" width="120" viewBox="0 0 120 30" height="30" version="1.0"><defs><clipPath id="a"><path d="M 1.933594 0 L 118.0625 0 L 118.0625 29.03125 L 1.933594 29.03125 Z M 1.933594 0"/></clipPath></defs><g clip-path="url(#a)"><path fill="#FFF" d="M 1.933594 0 L 118.066406 0 L 118.066406 36.289062 L 1.933594 36.289062 Z M 1.933594 0"/><path fill="#FFF" d="M 1.933594 0 L 118.066406 0 L 118.066406 29.03125 L 1.933594 29.03125 Z M 1.933594 0"/><path d="M 1.933594 0 L 118.066406 0 L 118.066406 29.03125 L 1.933594 29.03125 Z M 1.933594 0"/></g><g fill="#FFF" fill-opacity=".302"><g><g><path d="M 8.421875 -8.640625 C 8.128906 -8.785156 7.835938 -8.898438 7.546875 -8.984375 C 7.253906 -9.078125 6.894531 -9.125 6.46875 -9.125 C 5.757812 -9.125 5.15625 -8.960938 4.65625 -8.640625 C 4.15625 -8.316406 3.773438 -7.890625 3.515625 -7.359375 C 3.253906 -6.835938 3.125 -6.285156 3.125 -5.703125 C 3.125 -5.109375 3.253906 -4.546875 3.515625 -4.015625 C 3.773438 -3.492188 4.15625 -3.070312 4.65625 -2.75 C 5.15625 -2.425781 5.757812 -2.265625 6.46875 -2.265625 C 6.90625 -2.265625 7.3125 -2.3125 7.6875 -2.40625 C 8.0625 -2.507812 8.378906 -2.628906 8.640625 -2.765625 L 8.9375 -0.4375 C 8.59375 -0.300781 8.191406 -0.1875 7.734375 -0.09375 C 7.285156 -0.0078125 6.863281 0.03125 6.46875 0.03125 C 5.25 0.03125 4.207031 -0.234375 3.34375 -0.765625 C 2.488281 -1.304688 1.84375 -2.015625 1.40625 -2.890625 C 0.96875 -3.765625 0.75 -4.695312 0.75 -5.6875 C 0.75 -6.664062 0.96875 -7.585938 1.40625 -8.453125 C 1.84375 -9.328125 2.488281 -10.035156 3.34375 -10.578125 C 4.207031 -11.117188 5.25 -11.390625 6.46875 -11.390625 C 7.28125 -11.390625 8.019531 -11.242188 8.6875 -10.953125 Z M 8.421875 -8.640625" transform="translate(9.191 21)"/></g></g></g><g fill="#FFF" fill-opacity=".302"><g><g><path d="M 1.265625 0 L 1.265625 -11.25 L 3.515625 -11.25 L 3.515625 0 Z M 1.265625 0" transform="translate(18.653 21)"/></g></g></g><g fill="#FFF" fill-opacity=".302"><g><g><path d="M 3.515625 0 L 1.265625 0 L 1.265625 -11.484375 L 1.859375 -11.484375 L 7.53125 -4.875 L 7.53125 -11.234375 L 9.796875 -11.234375 L 9.796875 0.234375 L 9.203125 0.234375 L 3.515625 -6.125 Z M 3.515625 0" transform="translate(23.432 21)"/></g></g></g><g fill="#FFF" fill-opacity=".302"><g><g><path d="M 1.265625 0 L 1.265625 -11.25 L 6.890625 -11.25 L 6.890625 -9 L 3.515625 -9 L 3.515625 -6.75 L 6.46875 -6.75 L 6.46875 -4.5 L 3.515625 -4.5 L 3.515625 -2.25 L 7.078125 -2.25 L 7.078125 0 Z M 1.265625 0" transform="translate(34.497 21)"/></g></g></g><g fill="#FFF" fill-opacity=".302"><g><g><path d="M 10.859375 -11.421875 L 11.5625 -11.421875 L 11.5625 0 L 9.28125 0 L 9.296875 -6.28125 L 6.421875 -3.25 L 3.546875 -6.28125 L 3.546875 0 L 1.265625 0 L 1.265625 -11.421875 L 1.984375 -11.421875 L 6.421875 -6.484375 Z M 10.859375 -11.421875" transform="translate(46.883 21)"/></g></g></g><g fill="#FFF" fill-opacity=".302"><g><g><path d="M 4.984375 -11.65625 L 5.21875 -11.65625 L 9.953125 0 L 7.421875 0 L 6.96875 -1.21875 L 3.234375 -1.21875 L 2.796875 0 L 0.25 0 Z M 6.140625 -3.3125 L 5.109375 -6.25 L 4.0625 -3.3125 Z M 6.140625 -3.3125" transform="translate(59.71 21)"/></g></g></g><g fill="#FFF" fill-opacity=".302"><g><g><path d="M 4.609375 -11.25 C 5.804688 -11.25 6.828125 -10.984375 7.671875 -10.453125 C 8.515625 -9.921875 9.148438 -9.222656 9.578125 -8.359375 C 10.015625 -7.503906 10.234375 -6.597656 10.234375 -5.640625 C 10.234375 -4.660156 10.015625 -3.738281 9.578125 -2.875 C 9.148438 -2.019531 8.515625 -1.328125 7.671875 -0.796875 C 6.828125 -0.265625 5.804688 0 4.609375 0 L 1.265625 0 L 1.265625 -11.25 Z M 3.515625 -9 L 3.515625 -2.25 L 4.609375 -2.25 C 5.304688 -2.25 5.898438 -2.40625 6.390625 -2.71875 C 6.890625 -3.039062 7.265625 -3.457031 7.515625 -3.96875 C 7.773438 -4.488281 7.90625 -5.046875 7.90625 -5.640625 C 7.90625 -6.210938 7.773438 -6.753906 7.515625 -7.265625 C 7.265625 -7.785156 6.890625 -8.203125 6.390625 -8.515625 C 5.898438 -8.835938 5.304688 -9 4.609375 -9 Z M 3.515625 -9" transform="translate(69.974 21)"/></g></g></g><g fill="#FFF" fill-opacity=".302"><g><g><path d="M 1.265625 0 L 1.265625 -11.25 L 6.890625 -11.25 L 6.890625 -9 L 3.515625 -9 L 3.515625 -6.75 L 6.46875 -6.75 L 6.46875 -4.5 L 3.515625 -4.5 L 3.515625 -2.25 L 7.078125 -2.25 L 7.078125 0 Z M 1.265625 0" transform="translate(81.04 21)"/></g></g></g><g fill="#FFF" fill-opacity=".302"><g><g><path d="M 4.59375 -4.296875 L 3.515625 -4.296875 L 3.515625 0 L 1.265625 0 L 1.265625 -11.25 L 5.703125 -11.25 C 6.398438 -11.25 7 -11.085938 7.5 -10.765625 C 8.007812 -10.441406 8.390625 -10.019531 8.640625 -9.5 C 8.890625 -8.976562 9.015625 -8.421875 9.015625 -7.828125 C 9.015625 -7.097656 8.816406 -6.429688 8.421875 -5.828125 C 8.035156 -5.234375 7.492188 -4.835938 6.796875 -4.640625 L 9.40625 0 L 6.859375 0 Z M 5.484375 -6.484375 C 5.859375 -6.484375 6.144531 -6.601562 6.34375 -6.84375 C 6.539062 -7.09375 6.640625 -7.390625 6.640625 -7.734375 C 6.640625 -8.085938 6.539062 -8.382812 6.34375 -8.625 C 6.144531 -8.875 5.859375 -9 5.484375 -9 L 3.515625 -9 L 3.515625 -6.484375 Z M 5.484375 -6.484375" transform="translate(88.961 21)"/></g></g></g><g fill="#FFF" fill-opacity=".302"><g><g><path d="M 6.671875 0.15625 C 5.429688 0.15625 4.375 -0.113281 3.5 -0.65625 C 2.625 -1.207031 1.960938 -1.925781 1.515625 -2.8125 C 1.078125 -3.695312 0.859375 -4.644531 0.859375 -5.65625 C 0.859375 -6.644531 1.078125 -7.582031 1.515625 -8.46875 C 1.960938 -9.351562 2.625 -10.066406 3.5 -10.609375 C 4.375 -11.160156 5.429688 -11.4375 6.671875 -11.4375 C 7.910156 -11.4375 8.96875 -11.160156 9.84375 -10.609375 C 10.71875 -10.066406 11.375 -9.351562 11.8125 -8.46875 C 12.257812 -7.582031 12.484375 -6.644531 12.484375 -5.65625 C 12.484375 -4.644531 12.257812 -3.695312 11.8125 -2.8125 C 11.375 -1.925781 10.71875 -1.207031 9.84375 -0.65625 C 8.96875 -0.113281 7.910156 0.15625 6.671875 0.15625 Z M 6.671875 -2.171875 C 7.378906 -2.171875 7.988281 -2.332031 8.5 -2.65625 C 9.019531 -2.988281 9.40625 -3.421875 9.65625 -3.953125 C 9.914062 -4.484375 10.046875 -5.050781 10.046875 -5.65625 C 10.046875 -6.25 9.914062 -6.8125 9.65625 -7.34375 C 9.40625 -7.882812 9.019531 -8.316406 8.5 -8.640625 C 7.988281 -8.960938 7.378906 -9.125 6.671875 -9.125 C 5.953125 -9.125 5.335938 -8.960938 4.828125 -8.640625 C 4.328125 -8.316406 3.945312 -7.890625 3.6875 -7.359375 C 3.425781 -6.828125 3.296875 -6.257812 3.296875 -5.65625 C 3.296875 -5.050781 3.425781 -4.484375 3.6875 -3.953125 C 3.945312 -3.421875 4.328125 -2.988281 4.828125 -2.65625 C 5.335938 -2.332031 5.953125 -2.171875 6.671875 -2.171875 Z M 6.671875 -2.171875" transform="translate(98.597 21)"/></g></g></g><g fill="#F2F2F2"><g><g><path d="M 8.421875 -8.640625 C 8.128906 -8.785156 7.835938 -8.898438 7.546875 -8.984375 C 7.253906 -9.078125 6.894531 -9.125 6.46875 -9.125 C 5.757812 -9.125 5.15625 -8.960938 4.65625 -8.640625 C 4.15625 -8.316406 3.773438 -7.890625 3.515625 -7.359375 C 3.253906 -6.835938 3.125 -6.285156 3.125 -5.703125 C 3.125 -5.109375 3.253906 -4.546875 3.515625 -4.015625 C 3.773438 -3.492188 4.15625 -3.070312 4.65625 -2.75 C 5.15625 -2.425781 5.757812 -2.265625 6.46875 -2.265625 C 6.90625 -2.265625 7.3125 -2.3125 7.6875 -2.40625 C 8.0625 -2.507812 8.378906 -2.628906 8.640625 -2.765625 L 8.9375 -0.4375 C 8.59375 -0.300781 8.191406 -0.1875 7.734375 -0.09375 C 7.285156 -0.0078125 6.863281 0.03125 6.46875 0.03125 C 5.25 0.03125 4.207031 -0.234375 3.34375 -0.765625 C 2.488281 -1.304688 1.84375 -2.015625 1.40625 -2.890625 C 0.96875 -3.765625 0.75 -4.695312 0.75 -5.6875 C 0.75 -6.664062 0.96875 -7.585938 1.40625 -8.453125 C 1.84375 -9.328125 2.488281 -10.035156 3.34375 -10.578125 C 4.207031 -11.117188 5.25 -11.390625 6.46875 -11.390625 C 7.28125 -11.390625 8.019531 -11.242188 8.6875 -10.953125 Z M 8.421875 -8.640625" transform="translate(8.635 20.444)"/></g></g></g><g fill="#F2F2F2"><g><g><path d="M 1.265625 0 L 1.265625 -11.25 L 3.515625 -11.25 L 3.515625 0 Z M 1.265625 0" transform="translate(18.097 20.444)"/></g></g></g><g fill="#F2F2F2"><g><g><path d="M 3.515625 0 L 1.265625 0 L 1.265625 -11.484375 L 1.859375 -11.484375 L 7.53125 -4.875 L 7.53125 -11.234375 L 9.796875 -11.234375 L 9.796875 0.234375 L 9.203125 0.234375 L 3.515625 -6.125 Z M 3.515625 0" transform="translate(22.876 20.444)"/></g></g></g><g fill="#F2F2F2"><g><g><path d="M 1.265625 0 L 1.265625 -11.25 L 6.890625 -11.25 L 6.890625 -9 L 3.515625 -9 L 3.515625 -6.75 L 6.46875 -6.75 L 6.46875 -4.5 L 3.515625 -4.5 L 3.515625 -2.25 L 7.078125 -2.25 L 7.078125 0 Z M 1.265625 0" transform="translate(33.941 20.444)"/></g></g></g><g fill="#F2F2F2"><g><g><path d="M 10.859375 -11.421875 L 11.5625 -11.421875 L 11.5625 0 L 9.28125 0 L 9.296875 -6.28125 L 6.421875 -3.25 L 3.546875 -6.28125 L 3.546875 0 L 1.265625 0 L 1.265625 -11.421875 L 1.984375 -11.421875 L 6.421875 -6.484375 Z M 10.859375 -11.421875" transform="translate(46.327 20.444)"/></g></g></g><g fill="#F2F2F2"><g><g><path d="M 4.984375 -11.65625 L 5.21875 -11.65625 L 9.953125 0 L 7.421875 0 L 6.96875 -1.21875 L 3.234375 -1.21875 L 2.796875 0 L 0.25 0 Z M 6.140625 -3.3125 L 5.109375 -6.25 L 4.0625 -3.3125 Z M 6.140625 -3.3125" transform="translate(59.153 20.444)"/></g></g></g><g fill="#F2F2F2"><g><g><path d="M 4.609375 -11.25 C 5.804688 -11.25 6.828125 -10.984375 7.671875 -10.453125 C 8.515625 -9.921875 9.148438 -9.222656 9.578125 -8.359375 C 10.015625 -7.503906 10.234375 -6.597656 10.234375 -5.640625 C 10.234375 -4.660156 10.015625 -3.738281 9.578125 -2.875 C 9.148438 -2.019531 8.515625 -1.328125 7.671875 -0.796875 C 6.828125 -0.265625 5.804688 0 4.609375 0 L 1.265625 0 L 1.265625 -11.25 Z M 3.515625 -9 L 3.515625 -2.25 L 4.609375 -2.25 C 5.304688 -2.25 5.898438 -2.40625 6.390625 -2.71875 C 6.890625 -3.039062 7.265625 -3.457031 7.515625 -3.96875 C 7.773438 -4.488281 7.90625 -5.046875 7.90625 -5.640625 C 7.90625 -6.210938 7.773438 -6.753906 7.515625 -7.265625 C 7.265625 -7.785156 6.890625 -8.203125 6.390625 -8.515625 C 5.898438 -8.835938 5.304688 -9 4.609375 -9 Z M 3.515625 -9" transform="translate(69.417 20.444)"/></g></g></g><g fill="#F2F2F2"><g><g><path d="M 1.265625 0 L 1.265625 -11.25 L 6.890625 -11.25 L 6.890625 -9 L 3.515625 -9 L 3.515625 -6.75 L 6.46875 -6.75 L 6.46875 -4.5 L 3.515625 -4.5 L 3.515625 -2.25 L 7.078125 -2.25 L 7.078125 0 Z M 1.265625 0" transform="translate(80.483 20.444)"/></g></g></g><g fill="#F2F2F2"><g><g><path d="M 4.59375 -4.296875 L 3.515625 -4.296875 L 3.515625 0 L 1.265625 0 L 1.265625 -11.25 L 5.703125 -11.25 C 6.398438 -11.25 7 -11.085938 7.5 -10.765625 C 8.007812 -10.441406 8.390625 -10.019531 8.640625 -9.5 C 8.890625 -8.976562 9.015625 -8.421875 9.015625 -7.828125 C 9.015625 -7.097656 8.816406 -6.429688 8.421875 -5.828125 C 8.035156 -5.234375 7.492188 -4.835938 6.796875 -4.640625 L 9.40625 0 L 6.859375 0 Z M 5.484375 -6.484375 C 5.859375 -6.484375 6.144531 -6.601562 6.34375 -6.84375 C 6.539062 -7.09375 6.640625 -7.390625 6.640625 -7.734375 C 6.640625 -8.085938 6.539062 -8.382812 6.34375 -8.625 C 6.144531 -8.875 5.859375 -9 5.484375 -9 L 3.515625 -9 L 3.515625 -6.484375 Z M 5.484375 -6.484375" transform="translate(88.405 20.444)"/></g></g></g><g fill="#F2F2F2"><g><g><path d="M 6.671875 0.15625 C 5.429688 0.15625 4.375 -0.113281 3.5 -0.65625 C 2.625 -1.207031 1.960938 -1.925781 1.515625 -2.8125 C 1.078125 -3.695312 0.859375 -4.644531 0.859375 -5.65625 C 0.859375 -6.644531 1.078125 -7.582031 1.515625 -8.46875 C 1.960938 -9.351562 2.625 -10.066406 3.5 -10.609375 C 4.375 -11.160156 5.429688 -11.4375 6.671875 -11.4375 C 7.910156 -11.4375 8.96875 -11.160156 9.84375 -10.609375 C 10.71875 -10.066406 11.375 -9.351562 11.8125 -8.46875 C 12.257812 -7.582031 12.484375 -6.644531 12.484375 -5.65625 C 12.484375 -4.644531 12.257812 -3.695312 11.8125 -2.8125 C 11.375 -1.925781 10.71875 -1.207031 9.84375 -0.65625 C 8.96875 -0.113281 7.910156 0.15625 6.671875 0.15625 Z M 6.671875 -2.171875 C 7.378906 -2.171875 7.988281 -2.332031 8.5 -2.65625 C 9.019531 -2.988281 9.40625 -3.421875 9.65625 -3.953125 C 9.914062 -4.484375 10.046875 -5.050781 10.046875 -5.65625 C 10.046875 -6.25 9.914062 -6.8125 9.65625 -7.34375 C 9.40625 -7.882812 9.019531 -8.316406 8.5 -8.640625 C 7.988281 -8.960938 7.378906 -9.125 6.671875 -9.125 C 5.953125 -9.125 5.335938 -8.960938 4.828125 -8.640625 C 4.328125 -8.316406 3.945312 -7.890625 3.6875 -7.359375 C 3.425781 -6.828125 3.296875 -6.257812 3.296875 -5.65625 C 3.296875 -5.050781 3.425781 -4.484375 3.6875 -3.953125 C 3.945312 -3.421875 4.328125 -2.988281 4.828125 -2.65625 C 5.335938 -2.332031 5.953125 -2.171875 6.671875 -2.171875 Z M 6.671875 -2.171875" transform="translate(98.04 20.444)"/></g></g></g></svg>